<?xml version="1.0" encoding="utf-8"?>
<!-- Generator: Adobe Illustrator 22.1.0, SVG Export Plug-In . SVG Version: 6.00 Build 0)  -->
<svg version="1.1" id="Layer_1" xmlns="http://www.w3.org/2000/svg" xmlns:xlink="http://www.w3.org/1999/xlink" x="0px" y="0px"
	 viewBox="0 0 898 351" style="enable-background:new 0 0 898 351;" xml:space="preserve">
<style type="text/css">
	.st0{fill:#F7BD2A;}
	.st1{fill:#F7BD2A;stroke:#F7BD2A;stroke-width:3;stroke-miterlimit:10;}
</style>
<g>
	<path class="st0" d="M66.6,28.5v120.1H45.5V28.5h-41V7.7h103.2v20.7L66.6,28.5L66.6,28.5z"/>
</g>
<g>
	<path class="st0" d="M135.3,148.6V7.7H226v20.5h-69.6V63h40.4v20.5h-40.4V128H229v20.5h-93.7V148.6z"/>
</g>
<g>
	<path class="st1" d="M376.6,150H351l-11.9-33.4h-54.3L273.2,150h-25l0.7-1.9l51-141.8h24.3l0.3,0.9L376.6,150z M353,147.1h19.5
		l-50.3-138h-20.3l-49.7,138h18.9l11.7-33.4h58.4L353,147.1z M335.7,97.7h-47.5l11.9-34.1c0.9-2.5,1.9-5.4,2.9-8.6l5.5-17.8
		c0.8-2.6,1.4-4.6,1.8-6.1l1.4-5.1l1.4,5.1c0.4,1.5,1,3.5,1.9,6.1s1.8,5.5,2.8,8.6s2,6.1,3.1,9.2s2,5.9,2.8,8.5L335.7,97.7z
		 M292.3,94.8h39.4l-10.6-30.5c-0.8-2.5-1.7-5.3-2.8-8.4c-1.1-3.1-2.1-6.2-3.1-9.3s-1.9-5.9-2.8-8.5c-0.2-0.5-0.4-1.1-0.5-1.6
		c-0.1,0.5-0.3,1-0.5,1.5l-5.5,17.8c-1,3.2-2,6.2-2.9,8.7L292.3,94.8z"/>
</g>
<g>
	<path class="st1" d="M326,344.9h-24V224.8h-41v-23.6h106v23.6h-41V344.9z M304.9,342.1h18.3V222h41v-17.9H263.8V222h41v120.1H304.9
		z"/>
</g>
<g>
	<path class="st0" d="M479.3,343.5v-63.2h-64.8v63.2h-21.1V202.7h21.1v56.9h64.8v-56.9h21.1v140.8H479.3z"/>
</g>
<g>
	<path class="st0" d="M644,244.7c0,11.4-2.7,20.5-8.2,27.4c-5.5,6.8-13.1,11.5-22.7,13.9l28.8,57.5h-24.3l-28-55.7h-31.8v55.7H537
		V202.7h61.8c6.2,0,12,0.8,17.4,2.5s10.2,4.2,14.4,7.6c4.2,3.4,7.4,7.8,9.9,13.1C642.8,231.2,644,237.5,644,244.7z M622.7,245.3
		c0-7.4-2.2-13-6.5-16.9c-4.4-3.9-10.2-5.8-17.4-5.8h-41v45.3h41c7.1,0,12.9-1.8,17.3-5.5C620.5,258.7,622.7,253,622.7,245.3z"/>
</g>
<g>
	<path class="st0" d="M676.6,343.5V202.7h90.7v20.5h-69.6V258h40.4v20.5h-40.4V323h72.6v20.5H676.6z"/>
</g>
<g>
	<path class="st0" d="M800.3,343.5V202.7H891v20.5h-69.6V258h40.4v20.5h-40.4V323H894v20.5H800.3z"/>
</g>
</svg>
