<?xml version="1.0" encoding="utf-8"?>
<!-- Generator: Adobe Illustrator 22.1.0, SVG Export Plug-In . SVG Version: 6.00 Build 0)  -->
<svg version="1.1" id="Layer_1" xmlns="http://www.w3.org/2000/svg" xmlns:xlink="http://www.w3.org/1999/xlink" x="0px" y="0px"
	 viewBox="0 0 898 345" style="enable-background:new 0 0 898 345;" xml:space="preserve">
<g>
	<g>
		<path d="M66.6,25.5v120.1H45.5V25.5h-41V4.7h103.2v20.7L66.6,25.5L66.6,25.5z"/>
	</g>
	<g>
		<path d="M135.3,145.6V4.7H226v20.5h-69.6V60h40.4v20.5h-40.4V125H229v20.5h-93.7V145.6z"/>
	</g>
	<g>
		<path d="M376.6,147H351l-11.9-33.4h-54.3L273.2,147h-25l0.7-1.9l51-141.8h24.3l0.3,0.9L376.6,147z M353,144.1h19.5l-50.3-138
			h-20.3l-49.7,138h18.9l11.7-33.4h58.4L353,144.1z M335.7,94.7h-47.5l11.9-34.1c0.9-2.5,1.9-5.4,2.9-8.6l5.5-17.8
			c0.8-2.6,1.4-4.6,1.8-6.1l1.4-5.1l1.4,5.1c0.4,1.5,1,3.5,1.9,6.1s1.8,5.5,2.8,8.6s2,6.1,3.1,9.2s2,5.9,2.8,8.5L335.7,94.7z
			 M292.3,91.8h39.4l-10.6-30.5c-0.8-2.5-1.7-5.3-2.8-8.4c-1.1-3.1-2.1-6.2-3.1-9.3c-1-3.1-1.9-5.9-2.8-8.5
			c-0.2-0.5-0.4-1.1-0.5-1.6c-0.1,0.5-0.3,1-0.5,1.5l-5.5,17.8c-1,3.2-2,6.2-2.9,8.7L292.3,91.8z"/>
	</g>
	<g>
		<path d="M326,341.9h-24V221.8h-41v-23.6h106v23.6h-41V341.9z M304.9,339.1h18.3V219h41v-17.9H263.8V219h41v120.1H304.9z"/>
	</g>
	<g>
		<path d="M479.3,340.5v-63.2h-64.8v63.2h-21.1V199.7h21.1v56.9h64.8v-56.9h21.1v140.8H479.3z"/>
	</g>
	<g>
		<path d="M644,241.7c0,11.4-2.7,20.5-8.2,27.4c-5.5,6.8-13.1,11.5-22.7,13.9l28.8,57.5h-24.3l-28-55.7h-31.8v55.7H537V199.7h61.8
			c6.2,0,12,0.8,17.4,2.5s10.2,4.2,14.4,7.6c4.2,3.4,7.4,7.8,9.9,13.1C642.8,228.2,644,234.5,644,241.7z M622.7,242.3
			c0-7.4-2.2-13-6.5-16.9c-4.4-3.9-10.2-5.8-17.4-5.8h-41v45.3h41c7.1,0,12.9-1.8,17.3-5.5C620.5,255.7,622.7,250,622.7,242.3z"/>
	</g>
	<g>
		<path d="M676.6,340.5V199.7h90.7v20.5h-69.6V255h40.4v20.5h-40.4V320h72.6v20.5H676.6z"/>
	</g>
	<g>
		<path d="M800.3,340.5V199.7H891v20.5h-69.6V255h40.4v20.5h-40.4V320H894v20.5H800.3z"/>
	</g>
</g>
</svg>
