<?xml version="1.0" encoding="utf-8"?>
<!-- Generator: Adobe Illustrator 22.1.0, SVG Export Plug-In . SVG Version: 6.00 Build 0)  -->
<svg version="1.1" id="Layer_1" xmlns="http://www.w3.org/2000/svg" xmlns:xlink="http://www.w3.org/1999/xlink" x="0px" y="0px"
	 viewBox="0 0 889.5 348.5" style="enable-background:new 0 0 889.5 348.5;" xml:space="preserve">
<style type="text/css">
	.st0{fill:#FFFFFF;}
	.st1{fill:#FFFFFF;stroke:#FFFFFF;stroke-width:3;stroke-miterlimit:10;}
</style>
<g>
	<g>
		<path class="st0" d="M62.1,27.2v120.1H41V27.2H0V6.4h103.2v20.7L62.1,27.2L62.1,27.2z"/>
	</g>
	<g>
		<path class="st0" d="M130.8,147.3V6.4h90.7v20.5h-69.6v34.8h40.4v20.5h-40.4v44.5h72.6v20.5h-93.7V147.3z"/>
	</g>
	<g>
		<path class="st1" d="M372.1,148.7h-25.6l-11.9-33.4h-54.3l-11.6,33.4h-25l0.7-1.9L295.4,5h24.3l0.3,0.9L372.1,148.7z M348.5,145.8
			H368l-50.3-138h-20.3l-49.7,138h18.9l11.7-33.4h58.4L348.5,145.8z M331.2,96.4h-47.5l11.9-34.1c0.9-2.5,1.9-5.4,2.9-8.6l5.5-17.8
			c0.8-2.6,1.4-4.6,1.8-6.1l1.4-5.1l1.4,5.1c0.4,1.5,1,3.5,1.9,6.1s1.8,5.5,2.8,8.6s2,6.1,3.1,9.2s2,5.9,2.8,8.5L331.2,96.4z
			 M287.8,93.5h39.4L316.6,63c-0.8-2.5-1.7-5.3-2.8-8.4c-1.1-3.1-2.1-6.2-3.1-9.3c-1-3.1-1.9-5.9-2.8-8.5c-0.2-0.5-0.4-1.1-0.5-1.6
			c-0.1,0.5-0.3,1-0.5,1.5l-5.5,17.8c-1,3.2-2,6.2-2.9,8.7L287.8,93.5z"/>
	</g>
	<g>
		<path class="st1" d="M321.5,343.6h-24V223.5h-41v-23.6h106v23.6h-41V343.6z M300.4,340.8h18.3V220.7h41v-17.9H259.3v17.9h41v120.1
			H300.4z"/>
	</g>
	<g>
		<path class="st0" d="M474.8,342.2V279H410v63.2h-21.1V201.4H410v56.9h64.8v-56.9h21.1v140.8H474.8z"/>
	</g>
	<g>
		<path class="st0" d="M639.5,243.4c0,11.4-2.7,20.5-8.2,27.4c-5.5,6.8-13.1,11.5-22.7,13.9l28.8,57.5h-24.3l-28-55.7h-31.8v55.7
			h-20.8V201.4h61.8c6.2,0,12,0.8,17.4,2.5s10.2,4.2,14.4,7.6c4.2,3.4,7.4,7.8,9.9,13.1C638.3,229.9,639.5,236.2,639.5,243.4z
			 M618.2,244c0-7.4-2.2-13-6.5-16.9c-4.4-3.9-10.2-5.8-17.4-5.8h-41v45.3h41c7.1,0,12.9-1.8,17.3-5.5
			C616,257.4,618.2,251.7,618.2,244z"/>
	</g>
	<g>
		<path class="st0" d="M672.1,342.2V201.4h90.7v20.5h-69.6v34.8h40.4v20.5h-40.4v44.5h72.6v20.5H672.1z"/>
	</g>
	<g>
		<path class="st0" d="M795.8,342.2V201.4h90.7v20.5h-69.6v34.8h40.4v20.5h-40.4v44.5h72.6v20.5H795.8z"/>
	</g>
</g>
</svg>
